<svg xmlns="http://www.w3.org/2000/svg" id="Layer_2" viewBox="0 0 315.68 46.87"><defs><style>.cls-1{fill:none;stroke:#007262;stroke-width:.5px;}.cls-2{fill:#3c3c3b;}.cls-2,.cls-3,.cls-4{stroke-width:0px;}.cls-3{fill:#fff;}.cls-4{fill:#007262;}</style></defs><g id="Camada_1"><polygon class="cls-3" points=".25 .26 .25 46.62 314.84 46.62 314.84 .26 .25 .26 .25 .26"></polygon><polygon class="cls-1" points=".25 .26 .25 46.62 314.84 46.62 314.84 .26 .25 .26 .25 .26"></polygon><polygon class="cls-4" points="111.68 0 111.68 46.86 315.68 46.86 315.68 0 111.68 0 111.68 0"></polygon><path class="cls-2" d="m30.03,13.51c-1.9-.6-3.84-.92-5.87-.92-7.2,0-11.58,4.85-11.58,11.42s4.16,10.56,10.63,10.56c2.35,0,4.95-.44,7.08-1.24v-9.96h-2.89v8.09c-1.14.35-2.35.57-3.78.57-4.82,0-7.93-3.04-7.93-8.37,0-5.71,3.78-8.56,8.19-8.56,1.97,0,3.93.41,5.71,1.14l.44-2.73h0Zm18.75,20.78l-6.06-7.65c-.57-.7-1.24-1.52-1.87-2.28,3.74-.25,6.54-2.38,6.54-6.03,0-4.09-3.05-5.58-7.27-5.58-2.35,0-3.9.03-5.36.13v21.41h2.92v-9.61h.13l7.26,9.61h3.71Zm-4.44-15.58c0,2.29-1.78,3.84-4.85,3.84-.86,0-1.49-.03-1.81-.06v-7.3c.57-.03,1.2-.06,1.93-.06,3.11,0,4.73,1.02,4.73,3.58h0Zm18.53,15.58v-2.44h-8.09v-7.42h7.71v-2.35h-7.71v-6.79h8.09v-2.41h-11.01v21.41h11.01Zm15.1,0v-2.44h-8.09v-7.42h7.71v-2.35h-7.71v-6.79h8.09v-2.41h-11.01v21.41h11.01Zm21.13,0V12.88h-2.82v6.09c0,3.55.1,8.82.22,11.45-.79-1.52-1.68-3.14-2.63-4.7l-7.96-12.85h-3.84v21.41h2.86v-6.88c0-3.39-.1-8.53-.22-10.82.7,1.43,1.46,2.89,2.44,4.44l8.15,13.26h3.81Z"></path><path class="cls-3" d="m143.46,34.29l-7.96-21.41h-2.63l-7.96,21.41h2.51l1.9-5.27h9.52l1.87,5.27h2.76Zm-5.3-7.2h-8.19l3.11-8.47c.38-1.05.7-2.06.95-3.11h.06c.25,1.11.54,2.06.95,3.14l3.11,8.44h0Zm19.73,1.01c0-6.69-9.93-4.92-9.93-9.83,0-2.19,1.65-3.65,4.76-3.65,1.24,0,2.66.22,3.87.57l.13-2.19c-1.27-.25-2.51-.41-3.84-.41-4.7,0-7.42,2.54-7.42,5.93,0,6.76,9.93,4.82,9.93,9.9,0,2.92-2.32,4.03-5.08,4.03-1.49,0-3.14-.35-4.38-.79l-.13,2.38c1.17.32,2.7.54,4.28.54,4.85,0,7.8-2.7,7.8-6.47h0Zm15.99,0c0-6.69-9.93-4.92-9.93-9.83,0-2.19,1.65-3.65,4.76-3.65,1.24,0,2.66.22,3.87.57l.13-2.19c-1.27-.25-2.51-.41-3.84-.41-4.7,0-7.42,2.54-7.42,5.93,0,6.76,9.93,4.82,9.93,9.9,0,2.92-2.32,4.03-5.08,4.03-1.49,0-3.14-.35-4.38-.79l-.13,2.38c1.17.32,2.7.54,4.28.54,4.86,0,7.8-2.7,7.8-6.47h0Zm22.75-4.76c0-6.88-3.65-10.76-9.45-10.76s-10.06,4.03-10.06,11.23c0,6.47,3.08,10.76,9.49,10.76,5.49,0,10.03-4.06,10.03-11.23h0Zm-2.6.38c0,5.68-3.43,8.72-7.17,8.72-4.82,0-7.14-3.71-7.14-9.07s3.36-8.69,7.14-8.69c4.54,0,7.17,3.3,7.17,9.04h0Zm21.32,9.68l-.25-2.16c-1.33.67-3.4,1.14-5.04,1.14-5.23,0-7.68-3.17-7.68-8.69,0-4.88,2.16-8.95,7.36-8.95,1.68,0,3.33.29,5.11.82l.25-2.25c-1.59-.38-3.3-.63-4.95-.63-7.3,0-10.41,4.95-10.41,11.39s3.04,10.47,9.68,10.47c2.22,0,4.28-.44,5.93-1.14h0Zm7.26.89V12.88h-2.44v21.41h2.44Zm21.86,0l-7.96-21.41h-2.63l-7.96,21.41h2.51l1.9-5.27h9.52l1.87,5.27h2.76Zm-5.3-7.2h-8.19l3.11-8.47c.38-1.05.7-2.06.95-3.11h.06c.25,1.11.54,2.06.95,3.14l3.11,8.44h0Zm25.79-3.71c0-7.3-4.06-10.6-11.01-10.6-2.22,0-4.54.1-6.19.1v21.41c1.49,0,3.05.1,5.2.1,7.01,0,11.99-3.65,11.99-11.01h0Zm-2.54.16c0,6.09-3.74,8.85-9.14,8.85-.92,0-2.22-.09-3.08-.22V14.85c.86-.03,2.29-.1,3.49-.1,5.81,0,8.72,2.98,8.72,8.79h0Zm25.06-.19c0-6.88-3.65-10.76-9.46-10.76s-10.06,4.03-10.06,11.23c0,6.47,3.08,10.76,9.49,10.76,5.49,0,10.03-4.06,10.03-11.23h0Zm-2.6.38c0,5.68-3.43,8.72-7.17,8.72-4.82,0-7.14-3.71-7.14-9.07s3.36-8.69,7.14-8.69c4.54,0,7.17,3.3,7.17,9.04h0Zm18.21,4.38c0-6.69-9.93-4.92-9.93-9.83,0-2.19,1.65-3.65,4.76-3.65,1.24,0,2.67.22,3.87.57l.13-2.19c-1.27-.25-2.51-.41-3.84-.41-4.7,0-7.42,2.54-7.42,5.93,0,6.76,9.93,4.82,9.93,9.9,0,2.92-2.32,4.03-5.08,4.03-1.49,0-3.14-.35-4.38-.79l-.13,2.38c1.17.32,2.7.54,4.28.54,4.85,0,7.8-2.7,7.8-6.47h0Z"></path></g></svg>